<?xml version="1.0" encoding="UTF-8"?>
<svg data-name="Layer 2" viewBox="0 0 2102.5 2347.4" xmlns="http://www.w3.org/2000/svg">
 <defs>
  <style>.cls-1 { fill: #345365; } .cls-2 { fill: #e5ab99; } .cls-3 { fill: #e44e59; } .cls-4 { fill: #e7515c; } .cls-5 { fill: #272f32; } .cls-6 { fill: #d8b195; } .cls-7 { fill: #696a6c; } .cls-8 { fill: #ebf6e6; } .cls-9 { fill: #518096; } .cls-10 { fill: #edab8d; } .cls-11, .cls-12 { fill: #fff; } .cls-13 { fill: #48534b; } .cls-14 { fill: #f6f7f0; } .cls-15 { fill: #505960; } .cls-16 { fill: #252e31; } .cls-17 { fill: #c2c6c9; } .cls-18, .cls-19, .cls-20, .cls-12 { stroke: #000; stroke-miterlimit: 10; } .cls-18, .cls-19, .cls-20, .cls-21 { fill: none; } .cls-22 { fill: #1c3139; } .cls-23 { fill: #e7505b; } .cls-24 { fill: #dea78a; } .cls-25 { fill: #fedec7; } .cls-26 { fill: #6e4937; } .cls-27 { fill: #b33e3f; } .cls-28 { fill: #302b33; } .cls-29 { fill: #ae3b3e; } .cls-30 { fill: #ebf6e5; } .cls-31 { fill: #4d5d5c; } .cls-32 { fill: #f6f5ef; } .cls-33 { fill: #d1a588; } .cls-34 { fill: #b43844; } .cls-35 { fill: #4e5d55; } .cls-36 { fill: #eea785; } .cls-37 { fill: #e6505b; } .cls-38 { fill: #bd8c6e; } .cls-39 { fill: #c1c6cc; } .cls-19 { stroke-width: 3px; } .cls-40 { fill: #e3a785; } .cls-41 { fill: #384d5d; } .cls-42 { fill: #b1383f; } .cls-43 { fill: #4e5a5a; } .cls-44 { fill: #c4c3cf; } .cls-20 { stroke-width: 2px; } .cls-45 { fill: #e5ab8d; } .cls-46 { fill: #535d5e; } .cls-47 { fill: #aa3538; } .cls-48 { fill: #272c2f; } .cls-49 { fill: #472e26; } .cls-50 { fill: #704939; } .cls-51 { fill: #edf5e6; } .cls-52 { fill: #fdfffe; } .cls-53 { fill: #fdddc6; } .cls-12 { stroke-width: 2.21px; } .cls-54 { fill: #282b2f; } .cls-55 { fill: #6f4936; } .cls-56 { fill: #ffe1db; } .cls-57 { fill: #3e7caf; } .cls-58 { fill: #23292a; } .cls-59 { fill: #e54f5a; } .cls-60 { fill: #d7ac98; } .cls-61 { fill: #e4b091; } .cls-62 { fill: #292f32; } .cls-63 { fill: #54605f; } .cls-64 { fill: #2c2d32; } .cls-65 { fill: #eff5e8; } .cls-66 { fill: #402927; } .cls-67 { fill: #704c3c; } .cls-68 { fill: #af3845; } .cls-69 { fill: #84563f; } .cls-70 { fill: #e4e2e6; } .cls-71 { fill: #fdfdf8; } .cls-72 { fill: #1f2d30; } .cls-73 { fill: #6d4a34; } .cls-74 { fill: #f0ecf0; } .cls-75 { fill: #242e30; } .cls-76 { fill: #bc8b6d; } .cls-77 { fill: #b3383e; } .cls-78 { fill: #be6664; }</style>
 </defs>
 <path class="cls-4" d="m718.21 1832.7c-68.18 23.59-136.35 47.18-204.53 70.78-42.13 57.64-84.27 115.28-126.4 172.92-22.15 10.02-44.3 20.04-66.44 30.06l-27 81-158.76 156.6 369.36-2.16c17.42-13.01 34.83-26.03 52.25-39.04-1.22 11.93-2.43 23.87-3.65 35.8l215.28 3.36c-25.69-31.68-51.37-63.36-77.06-95.04 9.64-47.53 19.28-95.05 28.93-142.58-24.94 18.12-49.89 36.25-74.83 54.37 7.86-53.68 18.24-111.03 31.93-171.38 12.5-55.12 26.4-106.75 40.92-154.69z"/>
 <path class="cls-46" d="m816.16 1757.4c-29.51 11.16-59.01 22.32-88.52 33.48-19.67 62.03-38.44 129.76-54.88 202.85-13.36 59.38-23.79 116.11-31.93 169.7 25.24-18.8 50.49-37.61 75.73-56.41l-26.28 139.2c25.7 32.19 51.39 64.37 77.09 96.56 95.41 1.16 190.82 2.32 286.22 3.48l85.2-59.91c-4.62-41.71-8.42-85.46-11.07-131.13-2.21-37.92-3.48-74.59-3.99-109.93 38.46 40.41 76.93 80.81 115.39 121.22l27.68-330.67c-15.08-21.94-44.61-58.53-93.89-86.71-33.92-19.4-65.66-28.21-88.15-32.49 0.02 19.93 1.07 42.2 3.89 66.33 2.67 22.86 6.49 43.71 10.76 62.3l-194.04 342.78c-15.08-42.22-29.65-88.78-42.54-139.44-16.19-63.67-27.01-123.16-34.21-177.01 14.42-5.64 28.83-11.28 43.25-16.92-6.5-37.75-20.73-81.63-28.87-98.4-4.82-1.76-13.58-3.55-26.85 1.13z"/>
 <path class="cls-59" d="m209.93 1117.2c210.98-199.48 697.7-355 1186-229.92-124.62-376.62-345.31-450.19-665.76-433.12-203.96 22.87-383.01 111.56-490.66 419.4-32.14 91.92-35.09 177.72-29.59 243.64z"/>
 <path class="cls-8" d="m670.2,462.22c-.7,24.51.74,89.91,43.98,154.49,57.76,86.27,147.47,107.35,166.96,111.46-7.61,40.78-15.23,81.57-22.84,122.35-23.18.22-165.6-.77-269.64-115.34-75.88-83.55-87.45-179.19-89.93-211.31,24.07-13.86,54.35-28.71,90.55-41.1,29.76-10.18,57.2-16.53,80.92-20.55Z"/>
 <path class="cls-51" d="m1173.3,547.28c16.13,11.03,33.91,24.83,52.03,41.96,27.65,26.15,47.99,52.43,62.67,74.63-16.08,28.09-58.81,94-142.97,138.63-91.62,48.59-177.52,42.88-209.15,39.22.82-35.87,1.65-71.74,2.47-107.61,25.48-3.72,164.22-26.29,217.89-135.15,6.94-14.09,13.25-31.21,17.06-51.67Z"/>
 <path class="cls-68" d="m923.03 457.27c31.22 24.72 69.2 59.7 105.75 107.17 29.58 38.41 50.76 75.31 65.89 106.42 12.72-8.35 35.95-26.01 53.97-56.77 17.3-29.53 21.66-57.22 22.94-72.25-31.35-18.81-72.61-39.82-123.23-56.71-47.53-15.86-90.51-23.82-125.33-27.85z"/>
 <path class="cls-77" d="m1133 808.64c1.93 12.51 3.86 25.03 5.8 37.54 30.68 1.88 63.24 5.04 97.41 9.89 62.92 8.94 119.62 21.99 169.38 36.41-17.83-45.36-40.18-94.64-68.36-146.14-16.22-29.64-32.78-57.12-49.24-82.47-14.06 22.53-34.66 50.68-64 78.82-33.03 31.68-65.85 52.54-91.01 65.94z"/>
 <path class="cls-39" d="m1095 671.17c13.64 24.01 28.65 57.96 34.99 100.42 1.97 13.19 2.86 25.6 3.05 37.04 24.15-13 55.31-32.87 86.96-62.57 31.35-29.41 53.04-58.95 67.52-82.05-11.32-17.77-26.4-38.33-46.24-59.34-24-25.41-47.97-44.04-67.93-57.39-2.41 15.42-8.33 40.6-24.63 67.38-18.06 29.67-40.4 47.43-53.72 56.51z"/>
 <path class="cls-37" d="m1032 480.3c32.62-83.49 112.51-200.13 287.71-291.74 137.79-86.78 268.55-116.61 345.77-128.2-0.48 87.42-12.94 244.62-95.91 417.34-69.1 143.85-159.3 240.56-220.01 296.22-22.8-43.68-64.87-142.13-162.18-217.48-58.18-43.38-115.44-64.93-155.36-76.14z"/>
 <path class="cls-42" d="m1222.64,585.09c5.53-32.54,31.06-160.09,143.09-232.78,31.79-20.63,63.37-32.19,90.07-38.83.63,24.51-.13,52.12-3.41,82.16-4.91,44.96-14.23,83.97-24.18,115.89,33.41-26.65,70.58-60.14,108.01-101.56,46.71-51.68,81.55-102.13,107.25-145.3-16.68,68.11-45.28,155.61-96.23,249.92-64.21,118.82-139.87,203.93-197.65,259.34-17.67-37.84-41.78-81.17-74.85-125.94-17.45-23.63-35.09-44.54-52.1-62.9Z"/>
 <path class="cls-23" d="m1069.5 402.97c-10.29-21.99-26.52-54.2-49.71-91.12-25.74-41-53.95-78.08-139.61-172.63-32.98-36.4-76-83.01-127.6-136.6-15.19 30.47-29.6 66.04-40.53 106.58-39.81 147.69-10.69 277.32 11.82 347.98 50.1-2.07 107.12-1.42 169.57 4.49 50.98 4.82 97.58 12.4 139.21 21.14 12.28-26.61 24.56-53.22 36.84-79.83z"/>
 <path class="cls-29" d="m822.67,454.75c-11.66-33.51-23.26-78.31-26.5-131.89-1.87-30.9-.6-58.75,2.02-82.67,18.86,20.01,39.82,45.67,59.42,77.55,32.91,53.55,49.5,104.31,58.3,141.69-15.88-2.23-33.35-3.94-52.2-4.68-14.53-.57-28.25-.5-41.04,0Z"/>
 <path class="cls-53" d="m556.26 919.7c14.76-4.56 29.52-9.12 44.28-13.67 22.21 50.13 51.45 106.92 90.05 166.66 32.23 49.88 65.15 92.76 96.07 128.98-10.9-39.34-21.81-78.68-32.71-118.02 19.5 25.66 42.74 53.14 70.27 81.01 45.6 46.15 91.03 81.25 130.68 107.64-3.32-61.69-9.75-129.3-20.87-201.69-11.49-74.81-26.25-143.28-42.22-204.75 52.59 31.81 119.89 80.02 186.19 150.87 84.44 90.23 133.67 181.28 161.92 245.32 2.05 91.59 4.1 183.19 6.15 274.78-8.13 14.58-17.36 29.31-27.87 43.99-49.37 56.84-191.48 116.68-261.42 187.2-60.19-3-130.71-10.82-208.27-27.85-63.79-14.01-120.35-31.61-168.97-49.67-4.8-3.66-11.89-9.42-19.71-17.25-32.53-32.57-45.09-68.44-49.45-80.05-13.53-27.51-42.69-68.55-82.6-136.39 15.46-79.98 33.01-162.48 52.95-247.22 23.76-101 49.14-197.69 75.52-289.89z"/>
 <path class="cls-11" d="m704.41 1526.3-88.78 22.53c-87.44-63.38-193.59-253.12-73.4-304.22 136.3-57.94 165.75 205.05 162.17 281.69z"/>
 <path class="cls-70" d="m658.51 1301.5c-26.63-30.64-68.73-41.76-104.42-28.2-41.84 15.89-67.23 62.79-57.05 110.17-30.85-63.66 3.13-131.8 50.41-145.09 48.79-14.06 93.73 12.11 111.06 63.12z"/>
 <path class="cls-66" d="m662.83 1385.7c8.61 31.98 17.35 56.31 19.92 82.33 2.59 26.25 1.33 48.54-0.52 64.69-4.31 1.14-8.64 2.29-12.98 3.46-5.32 1.43-10.61 2.87-15.86 4.33-18.55-27.38-42.84-69.6-58.38-125.21-19.34-69.23-23.77-154.42-6.88-159.21 22.06-6.25 64.91 93.28 74.69 129.62z"/>
 <path class="cls-71" d="m614.76,1305.64c2.52,26.26-7.59,55.66-16.64,55.68-9.16.02-18.04-30.09-17.92-55.04.09-18.25,5.03-44.02,13.44-44.8,8.29-.77,19.07,22.87,21.12,44.16Z"/>
 <path class="cls-57" d="m652.71 1357.1c-7.74 4.21-18.74 11.48-28.86 23.45-16.78 19.85-21.4 41.1-22.9 51.11 5.1 16.81 11.96 35.76 21.26 55.99 9.49 20.61 19.62 38.44 29.25 53.45 10.49-3 20.98-5.99 31.47-8.99 1.61-20.72 1.8-46.08-1.93-74.65-5.47-41.96-17.45-76.01-28.29-100.36z"/>
 <path class="cls-41" d="m653.26 1357.9c2.4 5.6 4.77 11.33 7.13 17.19 2.97 7.4 5.76 14.67 8.39 21.8-7.73 2.42-15.46 4.83-23.19 7.25 11.8 24.83 23.11 72.04 8.48 78.68-14.63 6.65-19.94-35.46-29.92-53.19l-15.75 25.53c-1.72-5.14-9.86-31.17 3.77-59.12 12.69-26.01 35.58-35.94 41.09-38.16z"/>
 <path class="cls-32" d="m1060.3 1452c33.36-5.76 66.72-11.52 100.08-17.28 8.37-90.62 44.51-321.39-98.85-303.21-143.35 18.18-48.31 237.43-1.23 320.49z"/>
 <path class="cls-74" d="m985.33 1209.1c5.86-8.6 14.74-19.71 27.6-30.44 11.18-9.33 22.03-15.59 30.65-19.75 12.4 1.56 25.88 3.94 40.19 7.49 29.33 7.28 54.01 17.48 73.65 27.43-1.24-4.66-11.76-41.77-49.46-57.95-34.01-14.59-64.86-1.29-73.85 3.12-6.04 2.96-17.46 7.97-28.03 19.54-17.64 19.32-20.22 42.17-20.75 50.56z"/>
 <path class="cls-49" d="m1106 1289.3c16.41 67.27 18.22 153.07-0.92 157.84-19.06 4.75-59.75-70.74-74.33-144.07-12.4-62.36-8.96-138.51 9.18-142.24 18.56-3.82 51.43 68.47 66.07 128.47z"/>
 <path class="cls-52" d="m1064.7,1208.6c2.68,27.4-10.94,57.47-21.3,56.98-10.01-.47-17.89-29.49-17.57-52.19.27-19.47,6.72-46.11,16.51-46.87,9.29-.72,20.4,21.99,22.37,42.07Z"/>
 <path class="cls-1" d="m1097.5,1260.5c-8.65,6.05-23.13,17.9-34.47,37.54-14.07,24.38-15.67,47.54-15.71,58.51,2.01,9.34,5.09,20.13,9.89,31.72,7.82,18.89,17.56,33.54,25.84,44.04,3.6,4.99,7.34,8.26,10.02,10.27,0,0,7.78,5.84,11.98,4.59,1.51-.45,2.73-1.25,3.83-2.34,11.88-11.79,9.26-39.89,9.26-39.89,1.45-24.41-.52-77.04-20.65-144.45Z"/>
 <path class="cls-9" d="m1050 1364.8c7.14-8.85 14.27-17.7 21.41-26.55 0 0 9.03 54.59 20.17 50.77s0-72.33 0-72.33c6.42-0.61 12.83-1.23 19.25-1.84 14.71 85.21 9.55 128.82-5.35 131.81-12.84 2.53-40.32-25.76-55.48-81.85z"/>
 <path class="cls-10" d="m889.63 1496.6c2.7-2.34 6.77-5.32 12.24-7.68 6.98-3.01 13.27-3.71 17.28-3.84 3.51 2.88 9.17 8.63 13 17.53 2 4.65 3.13 10.4 2.84 18.47-0.72 20.16-14.25 11.05-21.37 16.57-4.39-5.07-9.35-11.58-14.03-19.62-4.57-7.86-7.74-15.22-9.96-21.43z"/>
 <path class="cls-38" d="m557.43 918.93c-22.98 97.88-103.07 356.31-134.41 597.89-25.46 324.56 19.98 440.06 149.45 479.11-43.52-5.45-87.03-10.89-130.55-16.34 22.62 16.47 45.25 32.94 67.87 49.41-105.79 12.4-202.24-3.96-294.62-74.19 23.76 32.17 47.53 64.35 71.29 96.52-10.55-1.34-114.71-16.39-163.82-109.95-31.54-60.09-22.41-118.37-18.55-137.51-34.06 24.83-68.13 49.66-102.19 74.49 35.79-87.14 70.63-182.82 102.21-286.74 52.36-172.26 85.22-332.44 105.82-474.44 40.84-36.92 95.95-80.17 166.35-119.95 67.36-38.06 130.09-62.41 181.15-78.31z"/>
 <path class="cls-55" d="m7.44,1873.58c35.86-33.53,74.8-75.25,112.47-126.31,18.42-24.98,34.47-49.38,48.45-72.67-3.84,25.67-6.29,62.55,1.28,105.67,5.27,30,13.98,54.99,22.32,74.16,3.98-20.18,12.12-48.11,29.83-77.41,8.83-14.6,18.27-26.62,27.01-36.27,5.65,19.57,14.62,43.18,29.27,67.98,31.54,53.4,73.13,84.84,98.93,101.13-.41-34.37-.81-68.74-1.22-103.11,14.85,79.44,151.99,178.64,196.69,189.17-18.88,2.21-44.89,3.07-74.87-2.73-17.97-3.48-33.4-8.58-45.97-13.74,19.6,16.53,39.2,33.06,58.8,49.58-17.61,2.58-37.5,4.52-59.33,5.05-24.79.6-47.24-.74-66.82-2.94-32.66-5.98-76.28-18.32-121.64-45.31-17.05-10.14-31.83-20.86-44.49-31.27,11.07,18.72,24.54,39.08,40.89,60.13,12.2,15.7,24.38,29.7,36.08,42.09-10.31-.23-105.04-4-162.24-85.26-48.15-68.41-34.96-142.37-32.35-155.64-9.22,9.27-21.1,19.7-35.96,29.67-21.21,14.23-41.39,22.77-57.12,28.01Z"/>
 <path class="cls-73" d="m221.52,1106.65c-.37,8.18-.75,16.35-1.12,24.53,26.1-21.96,63.86-53.01,110.69-89.07,51.92-39.97,86.19-63.9,84.66-66.23-14.16,7.53-28.45,14.21-47.29,24.91,0,0-14.12,8.13-29.03,17.63-45.5,29.01-111.52,82.99-117.9,88.22Z"/>
 <path class="cls-60" d="m222.15,1106.89c-.95,61.29-5.5,130.77-16.43,206.54-11.02,76.39-26.47,144.84-43.05,204.28,32.28,2.45,66.47,4.09,102.42,4.59,39.1.54,76.19-.33,111.04-2.18-22.38,6.75-47.82,12.87-76,17.2-56.29,8.63-105.88,7.34-144.93,3.11-5.75,26.38-16.1,61.22-35.6,99.15-20.24,39.37-43.56,68.87-62.25,89.18,31.3-86.39,61.7-182.37,88.51-287.36,29.76-116.55,50.36-225.67,64.6-324.94,3.89-3.18,7.78-6.37,11.68-9.55Z"/>
 <path class="cls-76" d="m601.26,903.36c24.98,56.82,58.3,121.12,103.01,188.29,27.49,41.3,55.43,77.89,82.4,110.02-10.45-39.19-20.91-78.39-31.36-117.58,27.54,37.13,64.82,80.25,114.19,122.48,29.48,25.21,58.26,45.82,84.72,62.62-.81-67.39-6.58-146.09-22.25-232.78-11.56-63.93-26.56-121.52-42.51-172.12,58.36,33.36,146.23,93.1,227.34,192.38,90.99,111.37,132.5,222.37,152.04,289.75,12.33,28.12,24.66,56.23,36.99,84.35l-44.28,64.83c30.34,110.94,62.02,331.26-120.18,398.48,60.51-20.14,121.03-40.28,181.54-60.41-37.38,33.35-79.29,63.54-137.27,82.55,28.01,3.97,61.99,5.59,99.92.46,121.5-16.45,201.27-91.09,232.27-123.8-2.65,14.97-8.09,35.94-20.1,58.69-14.75,27.94-33.13,46.69-45.76,57.69,13.94-3.46,96.38-25.36,141.08-107.59,33.92-62.38,26.01-122.49,22.69-141.6,41.29,28.23,79.89,47.25,110.69,39.53-140.15-122.42-211.11-504.64-320.84-807.09-114.41-29.63-277.18-57.8-471.75-46.35-131.18,7.72-243.65,31.51-332.58,57.22Z"/>
 <path class="cls-21" d="m748.41 1152.8c-13.62-68.67-27.23-137.34-40.85-206.01 21.17 31.66 43.49 63.75 67.05 96.17 59.92 82.47 120.66 157.22 180.38 224.72-38.08-25.23-81.17-57.99-124.96-100.1-30.35-29.18-55.96-57.99-77.43-84.79 11.35 39.64 22.71 79.29 34.06 118.93-12.75-16.31-25.5-32.61-38.25-48.92z"/>
 <path class="cls-67" d="m1245.9 1278.9c4.6-45.56 7.13-96.66 5.67-152.36-2.22-84.35-13.06-158.71-26.32-220.63 23.96 54.45 53.52 140.04 58.92 248.2 3.77 75.5-5.34 139.72-16.04 187.62-7.41-20.95-14.82-41.89-22.22-62.84z"/>
 <path class="cls-26" d="m1261.54,1495.6c13.93,58.47,19.16,107.35,21.25,142.21,3.14,52.35-.69,75.05-1.93,81.88-3.78,20.82-12.37,65.28-47.52,108.23-32.16,39.31-70.79,57.87-91.98,66.16,25.93-2.95,59.01-8.87,95.57-22.13,29.98-10.87,58.22-24.95,85.2-41.39-36.77,40.48-83.51,67.33-136.5,85.65,42.57,4.64,154.2,10.73,257.36-58.67,32.68-21.98,57.28-46.68,75.43-68.77,2.98,38.02-47.8,91.65-65.39,119.88,19.09-4.98,49.24-15.38,79.91-38.39,14.1-10.58,57.62-44.17,78.03-106.53,14.09-43.04,10.94-80.72,7.46-101.75,9.51,8.86,27.57,23.34,54.32,32.01,22.25,7.22,41.65,7.54,53.84,6.79-16.01-19.72-32.01-39.45-48.02-59.17-12.88-5.41-29.58-13.92-47-27.31-16.8-12.91-29-26.32-37.43-37.07,3.54,30.52,4.99,78.18-10.8,132.84-8.95,30.97-32.78,97.95-32.4,75.6.86-51.18,2.97-103.18-28.89-133.12-34.66,82.84-69.82,126.97-105.35,141.68,10.89-62.87,23.08-185.26-24.19-325.8-31.21-92.78-77.35-160.82-112.18-203.96-1.48,10.66-3.01,21.36-4.59,32.13-2.49,16.99-5.06,33.82-7.69,50.48,6.89,14.77,13.77,29.76,20.61,44.97,5.85,13,11.57,25.91,17.15,38.72-14.76,21.61-29.52,43.22-44.28,64.83Z"/>
 <path class="cls-69" d="m1390.8 886.95 11.42 36.28c-53.2-17.65-112.04-34.65-176.13-49.48-62.21-14.39-120.85-24.77-174.98-32.23 45.53-1.41 98.06-0.08 155.88 6.76 71.09 8.41 132.93 23.11 183.82 38.68z"/>
 <path class="cls-33" d="m1392.6 887.09c53.55 131.38 66.78 290.45 117.23 460.34 27.9 93.93 84.44 165.37 127.14 227.61-42.39-111.82-84.2-228.14-124.92-348.9-38.74-114.88-74.26-227.16-106.87-336.51-4.19-0.85-8.39-1.69-12.58-2.54z"/>
 <path class="cls-33" d="m1495.3 1291.5c-22.73 15.33-46.39 30.7-70.97 46.03-37.52 23.4-74.24 44.83-109.89 64.48 35.46-11.08 74.74-25.76 116.25-45.41 26.01-12.31 49.81-25.12 71.42-37.85"/>
 <path class="cls-50" d="m747.99 1155.8c-7.18-65.98-23.37-136.34-38.35-206.11 62.44 109.35 153.29 214.41 243.66 319.56-71.08-55.14-142.99-109.23-196.53-186.14 8.52 38.61 17.04 77.23 25.56 115.84-11.45-14.38-22.9-28.76-34.35-43.14z"/>
 <path class="cls-24" d="m414.74 1638.7c12.86 7.08 28.77 14.37 47.57 20.08 38.46 11.69 72.44 11.75 95.31 9.76-42.26-68.31-84.51-136.61-126.77-204.92-4.74 26.51-8.84 55.41-11.72 86.44-2.93 31.61-4.22 61.28-4.4 88.64z"/>
 <path class="cls-45" d="m1241.1 1268.2c1.67 82.25 3.35 164.49 5.02 246.74 10.69-14.87 21.59-29.84 32.71-44.89 9.64-13.05 19.26-25.91 28.86-38.61-22.2-54.41-44.39-108.83-66.59-163.24z"/>
 <path class="cls-2" d="m1243.7 1487.7c-19.53 35.46-47.6 77.97-87.7 120.45-75.99 80.5-158.73 122.35-211.71 143.74-41.69 2.79-93.94 2.66-153.24-6.05-14.75-2.17-66.69-10.29-132.13-32.36-41.22-13.9-75.63-29.23-102.34-42.58 7.37 6.59 14.73 13.18 22.1 19.77 15.65 9.57 39.41 22.3 70.34 32.21 16.26 5.21 29.05 7.88 49.16 12.04 39.22 8.09 70.28 12.27 83.75 14 71.47 9.15 144.99 12.86 175.16 14.19 86.67-57.32 153.58-102.09 195.33-129.1 11.01-7.12 33.46-21.55 57.62-46.74 18.45-19.25 30.82-37.4 38.18-49.3-1.51-16.75-3.01-33.51-4.52-50.26z"/>
 <path class="cls-40" d="m847.42,1754.95c5.24,16.04,10.28,33.49,14.8,52.25,4,16.61,7.15,32.46,9.65,47.41-16-.2-30.54,4.99-43.25,16.92,5.22,47.95,13.64,101.45,27.02,159.08,14.49,62.42,32.1,118.04,50.08,166.24,64.56-117.21,129.12-234.43,193.69-351.64-7.42-35.93-13.06-76.61-14.73-121.35-.56-14.96-.64-29.42-.33-43.34-43.49,28.39-86.99,56.79-130.48,85.18-35.48-3.58-70.96-7.17-106.43-10.75Z"/>
 <path class="cls-72" d="m829.58,1870.83c.54-8.9.47-29.8-12.9-49-18.11-26.01-53.16-38.17-89.05-31.01,9.86-7.28,18.87-12.68,26.08-16.59,14.58-7.9,26.55-12.26,33.52-14.76,9.71-3.49,18.18-5.89,24.7-7.54,12.12,2.16,24.24,4.31,36.36,6.47,3.54,10.6,6.94,21.83,10.07,33.68,5.94,22.49,10.01,43.7,12.76,63.16-13.84,5.19-27.69,10.38-41.53,15.57Z"/>
 <path class="cls-16" d="m677.95 2125.9c27.35-52.12 68.85-86 105.12-80.64 22.65 3.35 40.73 21.63 61.25 42.38 22.39 22.65 36.14 45.27 44.14 60.63-3.77 9.39-7.54 18.77-11.31 28.16 0 0-69.6-64.55-98.39-62.94-28.8 1.61-58.5 15.96-58.5 15.96-0.9-7.9-1.79-15.8-2.69-23.71l-39.6 20.16z"/>
 <path class="cls-58" d="m929.02,2156.36c27.56-34.12,52.26-61.57,71.33-81.85,7.02-7.47,32.74-34.3,71.23-52.91,10.58-5.12,21.6-9.35,33.39-5.8,18.67,5.63,26.36,26.88,27.97,31.68-5.35.76-10.69,1.52-16.04,2.28.11,13.2.22,26.39.34,39.59-21.02,2.95-50.78,9.66-83.04,26.03-46.71,23.69-75.7,55.95-90.74,75.52-4.82-11.51-9.63-23.03-14.45-34.54Z"/>
 <path class="cls-75" d="m1084 1711.2c17.44 4.39 37.94 11.15 59.83 21.8 12.11 5.89 22.9 12.13 32.38 18.26-25.62 32.46-51.25 64.91-76.87 97.37-4.27-20.57-8.05-43.2-10.81-67.69-2.81-25-4.15-48.36-4.53-69.73z"/>
 <path class="cls-14" d="m905.59 2199.4c-8.51-9.58-17.03-19.16-25.54-28.75-4.41 57.09-8.81 114.17-13.22 171.26l45.6 1.44c8.57-57.57 17.14-115.13 25.71-172.7-10.85 9.58-21.7 19.16-32.55 28.75z"/>
 <path class="cls-3" d="m1363.4 1902c20.99 5.14 52.31 14.62 87.02 32.93 56.01 29.54 87.65 64.56 116.37 92.44 35.2 34.18 89.62 80.59 169.66 127.25 2.42-20.8 4.85-41.6 7.27-62.4 31.35 12 90.24 29.73 164.61 23.17 92.27-8.15 156.88-49.15 184.79-69.38-5.75 59.03-16.75 126.21-36.72 198.72-9.5 34.51-20.06 66.69-31.1 96.46h-528.32l-204.62-73.8v78.83h-241.52c28.28-20.48 56.56-40.95 84.84-61.43-6.25-78.32-12.51-156.64-18.76-234.96l16.04-2.28 106.16 118.97 21.37-247.99c34.3-5.51 68.61-11.02 102.91-16.52z"/>
 <path class="cls-27" d="m1247.11,2072.59c19.71-26.11,39.41-52.22,59.12-78.33-1.93,40.25-3.86,80.5-5.79,120.75,13.23-21.5,26.47-43.01,39.7-64.51,7.83,34.99,29.27,108.32,91.86,176.64,76.36,83.35,167.41,108.4,201.72,116.03-46.19-.67-92.38-1.35-138.57-2.02-68.01-24.74-136.01-49.47-204.02-74.21-15.51-55.82-31.03-111.65-46.54-167.47.84-8.96,1.68-17.92,2.52-26.88Z"/>
 <path class="cls-35" d="m1743.4 2093.6c2.28-22.13 4.57-44.25 6.85-66.38 38.4 10.02 118.03 37.24 164.6 33.15 38.62-3.39 185.62-75.56 185.62-75.56-2.18 20.67-4.37 41.33-6.55 62-28.32 19.73-82.97 52.2-159.36 64.49-87.71 14.1-157.9-5.84-191.17-17.7z"/>
 <path class="cls-25" d="m1813.8 2046.4c5.76-74.79 11.51-149.58 17.27-224.37 23.6 3.39 49.42 6.07 77.23 7.44 32.55 1.61 62.66 1.19 89.84-0.4 8.47 64.27 16.94 128.54 25.41 192.82-17.32 8.03-36.62 16.06-57.83 23.52-19.87 7-38.73 12.55-56.24 16.99-15.61-1.75-31.97-4-48.99-6.87-16.34-2.75-31.92-5.84-46.69-9.14z"/>
 <path class="cls-36" d="m2015.43,1959.87c-28.49,11.13-61.9,22.18-99.81,31.18-37.21,8.83-71.44,13.95-101.45,16.84.05,12.66.09,25.31.14,37.97,17.64,6.86,54.4,11.76,95.07,17.15,20.25-5.56,41.88-12.35,64.53-20.7,18.11-6.67,35.04-13.66,50.76-20.73-3.08-20.57-6.17-41.14-9.25-61.71Z"/>
 <path class="cls-43" d="m1831.4 1821.5c-19.67-0.96-29.26-8.89-32.87-20.95l5.73-103.1c9.9 9.87 42.6 39.97 94.7 46.23 61.87 7.43 106.41-24.13 116.08-31.33l24.06 92.79c-8.99 15.68-22.19 22.26-38.33 22.5-22.23 2.69-47.72 4.38-75.87 3.83-35.64-0.7-67.15-4.82-93.49-9.96z"/>
 <path class="cls-48" d="m1969.9 1735.8c-13.52 4.79-52.45 16.59-98.6 2.58-34.93-10.6-57.26-30.9-67.5-41.56-2.26 32.8-4.52 65.59-6.78 98.39 1.84 12.55 8.13 21.8 22.67 24.94 21.3 4.22 45.05 7.76 70.94 9.83 17.29 1.38 33.68 1.97 49.02 1.98 10.08-32.05 20.16-64.11 30.25-96.16z"/>
 <path class="cls-7" d="m2026 1752.8 4.35 17.16c-13.01 5.58-30.63 11.97-52.11 16.49-6.68 1.41-31.96 6.68-66.74 5.74-24.81-0.67-64.52-4.54-112.45-21.71l1.11-19.99c14.8 7.13 33.43 14.33 55.53 19.1 24.67 5.33 43.99 5.74 56.23 5.64 13.27-0.11 33.14-0.32 58.37-5.27 14.84-2.91 34.13-7.96 55.71-17.17z"/>
 <path class="cls-30" d="m1807.9 1698.4c-7.39-11.81-22.96-45.07-22.96-45.07l-49.32-114.79s-97.27-96.94-73.13-121.6c44.62-44.28 135.42 83.92 135.42 83.92 5.13 2.97 13.01 6.65 23.19 8.23 18.74 2.91 33.63-3.11 39.84-6.06 3.77-14.34 9.05-30.43 16.56-47.52 13.67-31.08 30.26-55.36 44.66-73.13 11.94-5.26 23.88-10.52 35.83-15.78 4.63 3.69 10.46 9.2 15.72 16.98 8.85 13.08 11.6 25.94 12.58 33.34 12.91-0.94 31-0.05 45.24 11.08 65.72 51.38-13.6 281.45-13.6 281.45-21.87 19.54-43.09 27.96-56.35 31.88-57.86 17.11-128.59-2.82-153.67-42.93z"/>
 <path class="cls-15" d="m1734.2 1538.9c6.46-0.25 22.34-1.73 38.29-12.72 15.49-10.68 22.52-24.44 25.14-30.37-25.72-38.35-53.14-59.65-70.76-71.03-36.15-23.36-50.86-17.78-55.02-15.8-7.47 3.55-11.59 10.04-12.96 12.72-16.76 32.86 66.05 108.82 75.31 117.21z"/>
 <path class="cls-64" d="m1783.6 1517.2c-11.84-18.99-29.76-43.29-55.98-67.09-20.46-18.57-40.5-31.86-57.17-41.27 3.78-0.88 7.48-1.41 11.09-1.64 58.23-3.8 104.89 68.47 116.82 88-1.32 3.15-3.12 6.77-5.57 10.59-3.09 4.8-6.36 8.58-9.19 11.42z"/>
 <path class="cls-63" d="m1921.4 1387.4c-22.29 21.22-52.23 57.59-54.71 104.42-0.71 13.33-2.17 40.66 12.91 47.86 11.32 5.41 29.03-1.92 43.72-17.85-1.11 5.39-2.04 12.53-1.67 20.89 0.42 9.71 2.44 17.72 4.35 23.43 17.57 3.47 43.81 11.89 79.46-63.96l22.09-22.09s-1.84-28.8-13.39-36.82-41.51-3.35-41.51-3.35c0.62-2.86 4.08-20.2-7.08-35.47-9.76-13.37-26.92-19.95-44.17-17.06z"/>
 <path class="cls-54" d="m1867.77,1509.36c9.12,7.09,16.38,8.99,22.27,7.59,15.13-3.59,16.92-27.95,30.76-51.62,8.01-13.69,22.55-31.45,51.22-46.75.58,2.5,1.08,5.46,1.28,8.8.29,4.95-.18,9.23-.8,12.56-8.78,10.35-18.71,24.01-27.51,41.19-5.41,10.56-9.42,20.56-12.43,29.53-1.27,9.52-.55,19.46,1.41,27.02,1.64,6.31,4.64,11.73,8.84,12.71,8.59,1.99,19.54-17.04,35.61-43.76,8.46-14.06,21.52-35.54,38.35-62.24,2.46,4.5,5.04,10.04,7.2,16.56,2.86,8.65,4.13,16.46,4.68,22.68-8.27,7.58-16.53,15.16-24.8,22.74-.53,4.48-4.53,33.99-31.12,51.66-18.98,12.62-38.49,11.9-44.94,11.38-1.84-5.46-3.61-12.2-4.62-20.02-1.42-10.96-.87-20.44.1-27.59-.65,1.42-7.9,16.48-24.51,19.34-11.65,2-20.65-3.26-23.01-4.75-1.89-1.79-4.71-4.93-6.65-9.58-3.22-7.74-1.98-14.74-1.36-17.44Z"/>
 <path class="cls-31" d="m1737.2 1341.3c-16.03-12.3 16.09-97.64 65.99-98.07 32.21-0.28 54.55 34.17 56.99 38.06 9.36-13.68 29.64-36.11 58.02-36.05s37.42 46.52 37.42 46.52l2.24 75.7c-11.34 4.64-22.68 9.29-34.02 13.93 3.85-24.48 7.7-48.97 11.55-73.45-7.4 5.24-15.19 10.54-23.37 15.84-8.58 5.56-16.99 10.72-25.17 15.51-4.44-0.96-10.68-2.87-17.31-6.87-9.52-5.75-15.18-13.01-18.08-17.4-8.09-4.04-16.18-8.09-24.27-12.13 0 0-56.25 64.33-90 38.43z"/>
 <path class="cls-78" d="m1706.7 1410.6c0.25-7.56 1.74-22.12 10.3-37.81 8-14.68 18.47-23.53 24.5-27.93 6.31 1.28 16.64 2.46 28.47-0.65 5.19-1.36 11.17-3.68 21.02-10.1 9.24-6.02 22.35-15.94 35.89-31.65 6.48 1.81 15.96 5.4 24.84 13.16 7.09 6.19 8.48 10.4 14.28 14.1 5.77 3.68 15.7 6.72 33.5 1.75 7.51 8.98 15.52 20.45 22.29 34.63 2.15 4.51 4 8.9 5.57 13.11-12.87-4.72-26.36-9.35-40.47-13.81-13.12-4.15-25.89-7.87-38.26-11.22-3.7-9.12-12.05-16.06-28.5-13.2s-18.12 12.45-20.29 19.15c-31.05 16.82-62.1 33.64-93.15 50.47z"/>
 <ellipse class="cls-56" transform="translate(-59.08 2646.6) rotate(-73.38)" cx="1746.4" cy="1363" rx="13.26" ry="9.29"/>
 <path class="cls-13" d="m1707.5 1410.8c9.63-6.38 19.84-12.78 30.66-19.1 20.94-12.23 41.16-22.43 60.17-30.96 4.27-12.95 15.82-22.2 29.36-23.52 13.65-1.33 26.86 5.64 33.5 17.68 21.7 7.67 43.4 15.33 65.11 23-4.58 6.23-9.16 12.45-13.74 18.68-6.53-4.55-14.78-9.55-24.74-14.06-9.48-4.29-18.25-7.12-25.7-9.01-7.39 14.77-20.25 25.13-33.63 24.72-18.13-0.55-24.73-10.44-27.78-20.07-8.06 2.11-21.16 6.64-34.5 16.82-15.3 11.68-23.54 25.18-27.51 32.9-10.4-5.7-20.8-11.39-31.2-17.09z"/>
 <path class="cls-28" d="m1897.4 1333c4.92 5.76 10.19 12.65 15.33 20.74 6.09 9.58 10.61 18.67 13.98 26.61 4.64-10.45 9.69-24.8 12.23-42.37 1.76-12.2 1.9-23.09 1.39-32.06-8.01 4.18-16.52 9.06-25.33 14.77-6.33 4.11-12.2 8.24-17.61 12.3z"/>
 <path class="cls-65" d="m1738.84,1428.26c9.65,7.7,21.24,18.37,32.6,32.6,11.91,14.92,19.97,29.26,25.39,40.76,3.86,2.85,17.69,12.32,37.13,11.08,14.75-.94,25.11-7.57,29.39-10.69,3.37-15.57,9.09-35.17,19.15-56.55,9.58-20.36,20.41-36.61,29.83-48.83-5.26-4.87-13.67-11.55-25.43-16.81-11.88-5.31-22.56-7.12-29.73-7.77-2.55,13.51-13.87,23.58-27.22,24.45-12.45.81-24.26-6.55-29.25-18.31-8.22,2.19-22.64,7.19-36.99,19.03-13.58,11.21-21.08,23.58-24.87,31.04Z"/>
 <path class="cls-44" d="m1807.4 1502.8c-15.52-19.49-18.26-46.26-6.99-68.15 10.68-20.76 32.29-33.89 55.88-34.01 4.3 3.66 10.58 8.23 18.91 12.06 8.39 3.86 16.01 5.65 21.62 6.54-7.03 11.01-14.83 25.5-21.05 43.37-4.32 12.4-6.99 23.87-8.65 33.79-5.94 3.55-18.1 9.68-34.49 10.2-10.74 0.34-19.49-1.85-25.2-3.8z"/>
 <path class="cls-17" d="m1791.15,1653.56c37.16,30.71,81.58,33.01,103.6,12.94,24.31-22.16,13.93-64.39,12.24-71.28-7.31-34.29-71.34-74.47-89.73-84.69,15.37-2.84,30.73-5.68,46.1-8.52-.91,3.27-3.06,12.6.97,23.21,3.01,7.95,8.06,12.84,10.72,15.09,4,1.38,10.77,3.07,18.9,1.83,18.19-2.76,27.78-17.8,29.35-20.35-.68,7.89-.91,17.12-.1,27.36.56,7.17,1.55,13.73,2.72,19.58,7.18.96,24.91,2.29,42.96-7.61,32.4-17.77,36.26-55.49,36.56-58.96,3.25-3.32,9.24-8.53,18.2-11.81,5.39-1.98,10.26-2.67,13.92-2.88-5.47,31.2-12.18,63.87-20.41,97.78-13.57,55.96-29.32,107.3-45.83,153.77-57.07,18.97-115.75,8.79-150.55-27.63-18.75-19.62-26.32-42.41-29.61-57.82Z"/>
 <path class="cls-62" d="m1734.04,1309.06c8.58,13.69,18.77,18.42,23.27,20.1,22.6,8.41,52.78-3.9,72.34-32.18,8.82,5.74,17.64,11.47,26.46,17.21,4.62,5.49,8.9,11.15,15.86,14.69,2.77,1.4,9.6,4.19,18.22,3.55,7.32-.54,11.96-3.3,27.59-13.36,10.19-6.56,18.41-11.95,23.76-15.47.73,7.33.95,15.93,0,25.46-2.19,22.07-9.68,39.3-15.72,50.34-1.59-5.28-6.72-19.83-21.32-30.97-18.08-13.8-37.87-12.59-42.64-12.16-.1-1.2-1.4-13.92-12.48-20.16-7.02-3.96-13.98-3.07-16.27-2.67-12.94,24.76-38.92,30.25-63.12,30.8-35.6,7.84-42.47-4.27-35.96-35.18Z"/>
 <path class="cls-22" d="m1752.8 2028.2c21.64-17.32 43.29-34.65 64.93-51.97l-2.41 71.26-62.52-19.29z"/>
 <path class="cls-5" d="m2012.7 1941.1c4.1 26.51 8.19 53.03 12.29 79.54 5.83 19.08 11.66 38.16 17.49 57.23 8.2-3.08 17.79-7.39 27.98-13.45 9.37-5.57 17.16-11.39 23.46-16.7 2.45-23.84 4.91-47.67 7.36-71.51-10.87-5.82-22.93-11.67-36.17-17.2-18.79-7.85-36.47-13.62-52.41-17.91z"/>
 <path class="cls-61" d="m613.58 1214.6c12.34-9.96 29.36-11.82 43.32-4.75 14.72 7.46 23.37 23.5 21.59 40.15-9.54-7.05-21-14.54-34.42-21.64-10.84-5.73-21.13-10.22-30.49-13.77z"/>
 <path class="cls-6" d="m990.78 1127.9-39.08 43.42c-4.42-13.15-0.82-27.47 9.05-36.23 12.46-11.07 28.5-7.55 30.03-7.19z"/>
 <path class="cls-34" d="m756.41 2340.5c-50.28-22.43-120.84-72.11-156.12-62.03-37.44 12.24-38.88 41.76-44.67 63.97l200.79-1.94z"/>
 <path class="cls-19" d="m1135.4 1159.1c4.3-1.22 9.48-3.08 15.04-5.95 6.56-3.39 11.7-7.19 15.49-10.45"/>
 <path class="cls-47" d="m623.22 2113.1c-28.03 33.1-59.44 67.56-94.53 102.54-49.18 49.04-97.55 91.09-142.96 126.95 41.67-0.62 83.34-1.24 125.01-1.86 15.18-11.3 30.35-22.61 45.53-33.91 4.78-29.04 12.59-63.35 25.62-100.8 12.7-36.52 27.42-67.59 41.33-92.92z"/>
 <path class="cls-19" d="m1032.2 1581.4c-27.41 24.51-69.59 38.38-126.52 46.38-26.88 3.78-50.93 3.63-70.81 1.97"/>
 <path class="cls-19" d="m874.79 1521.5c3.04 3.57 6.16 7.51 9.29 11.82 3.72 5.13 6.93 10.1 9.71 14.78"/>
 <path class="cls-19" d="m407.1 1266.6c4.34-10.49 39.74-92.09 130.89-117.97 75.49-21.43 137.29 10.11 150.31 17.13"/>
 <path class="cls-19" d="m908.15 1107.4c21.3-32.59 45.61-49.09 61.33-57.49 67.23-35.9 158.18-20.09 233.86 37.54"/>
 <path class="cls-19" d="m615.14 1216.3c10.36 2.73 23.94 7.49 38.36 16.17 9.64 5.8 17.42 12 23.48 17.56"/>
 <path class="cls-19" d="m993.62 1127.8c-6.79 5.4-14.6 12.49-22.41 21.58-7.04 8.19-12.44 16.11-16.56 23.03"/>
 <path d="m498.08 1387.1c-12.26-26.93-15.18-58.14-8.66-87.05 3.39-16.4 8.61-32.62 18.13-46.69 30.56-45.84 90.66-32.41 127.49-2.21 10.25 8.29 19.43 17.77 27.14 28.24l-2.26 1.97c-13.78-13.19-28.73-24.8-45.75-33.15-28.03-14.25-67.83-20.88-91 5.25-12.33 13.57-18.72 31.44-23.31 49.01-4.04 15.03-5.99 30.58-5.18 46.26 0.59 12.53 2.75 25.05 6.21 37.32l-2.82 1.03z"/>
 <path d="m981.04 1218.2c-2.49-50.62 36.8-104.96 91.63-96.72 50.55 7.35 87.68 56.15 87.44 106.08l-1 0.09-0.92-4.38c-1.21-5.66-2.84-11.59-4.84-17.03-12.42-35.86-43.89-67.29-82.33-72.31-28.94-4.03-53.7 12.77-69.31 36.05-9.85 14.54-16.01 30.86-19.68 48.29l-1-0.08z"/>
 <path class="cls-19" d="m615.53 1548.4c14.13-0.62 31.57-2.6 51-7.63 16.25-4.2 30.15-9.56 41.47-14.78"/>
 <path class="cls-19" d="m1060.3 1452c14.83-0.44 31.88-1.85 50.58-5.08 18.76-3.23 35.35-7.63 49.5-12.2"/>
 <path class="cls-19" d="m1114 1136.5c3.94-0.78 11.18-2.76 18.51-8.26 7.07-5.3 10.95-11.42 12.83-14.93"/>
 <path class="cls-19" d="m1150.99,1189.63c4.82.94,10.47,1.7,16.8,1.92,8.87.3,16.61-.55,22.8-1.68"/>
 <path class="cls-19" d="m500.21,1269.6c-6.03.76-15.01,1.16-25.51-1.1-13.25-2.85-22.85-8.64-28.3-12.52"/>
 <path class="cls-19" d="m488.11 1312c-4.95 2.9-11.53 6.1-19.64 8.44-12.59 3.64-23.58 3.68-30.92 3.1"/>
 <path class="cls-19" d="m487.42 1341.7c-3.57 4.08-9.87 10.21-19.39 14.88-12.48 6.12-23.94 6.52-29.76 6.31"/>
 <path class="cls-19" d="m430.66,1459.25c43.15,72.29,86.3,144.57,129.45,216.86,14.02,11.13,37.04,27.43,68.37,40.75,9.08,3.86,30.74,12.39,130.09,28.02,30.45,4.79,56.22,8.81,88.65,12.33,5.28.57,10.74,1.13,16.42,1.68,35.52,3.43,67.21,5.16,94.07,6,83.68-63.27,260.75-153.57,290.5-226.9-2.24-89.85-4.49-179.7-6.73-269.56"/>
 <path class="cls-19" d="m520.32,1622.41c-11.81.15-31.55-1.16-53.48-10.56-15.56-6.67-27.05-15.21-34.67-21.9"/>
 <path class="cls-19" d="m457.5 1502.1c-6.03 3-9.05 6.59-10.58 9.96-8.4 18.51 18.03 52.69 64.5 86.58"/>
 <path class="cls-19" d="m414.74 1638.7c23.72 11.78 56.81 24.48 97.62 29.46 15.29 1.87 29.51 2.38 42.36 2.1"/>
 <path class="cls-19" d="m1281.3 1364.6c-1.61 7.4-3.65 15.29-6.23 23.54-4.38 14.02-9.49 26.4-14.62 37.07"/>
 <path class="cls-19" d="m1289.2 1385.4c-3.52 7.89-8.66 17.56-16.14 27.71-7.59 10.3-15.43 18.15-22.01 23.89"/>
 <path class="cls-19" d="m1242.1 1266c21.57 55.24 43.13 110.48 64.7 165.72-9.44 13.54-19.31 27.29-29.62 41.21-9.71 13.12-19.39 25.82-29 38.1"/>
 <circle class="cls-12" cx="1829.9" cy="1364" r="9.77"/>
 <path class="cls-19" d="m1403.18,889.01c-119.85-42.26-390.09-65.18-589.69-33.27-296.01,48.32-506.27,165.2-601.64,257.03-1.29-46.84-5.34-370.88,230.02-549.37,97.12-73.66,215.25-98.37,228.33-101.18,113-24.32,203.53-9.84,264.08.45,80.97,13.75,151.08,25.66,226.79,75.04,109.55,71.46,163,177.48,197.41,244.65,21.65,42.27,35.73,79.61,44.71,106.65Z"/>
 <path class="cls-19" d="m722.41 453.82c-17.15-54.85-38.85-150.12-23.74-266.87 10.12-78.16 33.48-140.82 53.92-184.33 30.46 31.76 64.6 67.7 101.73 107.35 101.12 108 124 136.37 145.86 168.74 24.04 35.61 48.29 78.2 69.59 128.7 33.82-45.48 77.82-95.4 134.58-143.2 147.51-123.49 358.95-185.38 460.66-199.2-1.96 98.43-19.48 279.13-126.04 468.73-59.46 105.79-128.97 182.91-185.08 235.4"/>
 <path class="cls-19" d="m1227.3 574.99c15.58-33.36 38.08-73.81 70.56-115.92 26.81-34.77 54.06-62.43 78.12-83.88"/>
 <path class="cls-19" d="m852.97 325.17c13.02 21.65 26.2 45.71 38.86 72.18 8.81 18.41 16.53 36.24 23.32 53.3"/>
 <path class="cls-20" d="m616.63 2053.1c6.85 13.49 13.7 26.97 20.55 40.46-20.77 31.7-45.39 76.68-62.98 134.2-12.84 41.97-18.66 79.94-21.17 110.84"/>
 <path class="cls-20" d="m630.18,1963.4c4.58,18.79,8.59,42.75,8.93,70.65.24,20.32-1.52,38.39-3.97,53.63"/>
 <polygon points="549.51 2288.5 442.75 2340.6 441.45 2337.8 548.63 2286.7"/>
 <path class="cls-18" d="m557.02 2304.2c-7.44 6.34-15.32 12.79-23.65 19.27-8.22 6.41-16.3 12.4-24.18 18.01"/>
 <path class="cls-19" d="m713.85 1834.8c-66.75 23.12-133.5 46.25-200.26 69.37-9.89 13.05-19.79 26.1-29.68 39.15"/>
 <path class="cls-19" d="m414.37 2035c-10.01 14.85-20.02 29.7-30.03 44.54-21.16 9.12-42.33 18.24-63.49 27.36-9.08 27.28-18.17 54.57-27.25 81.85-51.85 50.75-103.69 101.49-155.54 152.24"/>
 <path class="cls-20" d="m480.24 2040.4c-13.89 7.17-29.14 14.37-45.7 21.3-16.39 6.85-32.06 12.59-46.78 17.42"/>
 <path class="cls-20" d="m342.13 2148.2c-15.57 13.81-31.15 27.61-46.72 41.42"/>
 <path class="cls-20" d="m1301.1 1999.8c-9.45 13.3-19.57 29.52-28.92 48.71-7.33 15.04-12.9 29.24-17.17 42.04"/>
 <path class="cls-20" d="m1340.3 2055.7c-8.32 32.74-15.8 69.73-21.02 110.48-3.94 30.82-6.07 59.78-6.97 86.48"/>
 <path class="cls-20" d="m1736.4 2154.6c-4.74 23.1-10.66 40.99-15.19 53.05-5.79 15.45-10.08 23.41-12.01 37.03-2.46 17.33 0.56 32.12 3.43 41.77"/>
 <path class="cls-20" d="m1661.9 2339.4c4.91-15.51 11.88-33.49 21.92-52.67 7.73-14.76 15.86-27.54 23.61-38.36"/>
 <path class="cls-20" d="m1715.4 2314.6c0.73 9.39 1.47 18.78 2.2 28.17"/>
 <path class="cls-20" d="m1245.9 2101.8c4.64 16.28 11.17 39.31 18.91 67 16.7 59.79 18.84 69.12 20.47 77.23 4.73 23.58 9.2 57.43 7.06 100.17"/>
 <path class="cls-19" d="m1342.5 1905.3c6.92-1.13 13.84-2.26 20.76-3.38 28.37 7.71 70.6 22.19 115.45 50.88 48.31 30.9 68.63 58.39 114.4 99.15 30.41 27.08 77.07 64.49 142.43 101.93 4.73-40.37 9.45-80.73 14.18-121.1 22.67-18.83 45.33-37.66 68-56.49 4.01-51.36 8.02-102.72 12.03-154.08-4.44-0.38-15.51-1.91-23.47-9.6-2.31-2.23-3.89-4.52-4.17-4.95-3.14-4.8-4.23-9.94-5.48-15.78l7.28-91.67-69.77-161.29c-19.63-16.05-34.3-31.41-44.59-43.31-25.51-29.51-29.26-43.66-30.38-52.93-0.94-7.72-2.75-22.11 6.44-30.88 13.42-12.81 39.49-2.22 40.55-1.77 0.83-8.1 3.23-21.54 11.12-36.11 7.39-13.65 16.53-22.65 22.61-27.78-2.71-5.49-8.02-16.13-6-29.24 1.67-10.77 6.54-22.09 13.24-32.48 2.27-3.53 22.08-39.49 51.1-39.55 27.96-0.05 44.72 12.86 62.64 35.05 12.8-20.05 42.7-36.98 65.51-32.5 14.11 3.18 37.16 30.38 28.84 119.59 4.87 2.78 13.4 8.53 20.43 18.85 8.67 12.73 10.24 25.35 10.6 31.1 21.95-0.26 36.1 5.68 45.54 12.49 49.49 35.71 25.67 158.58-15.11 283.03l22.41 92.67c-1.66 3.41-6.34 11.89-16.4 17.92-10.58 6.34-20.8 6.19-24.54 5.95 5.45 37.99 10.9 75.97 16.35 113.96 11.69 3.63 23.7 7.61 36 12 17.77 6.34 34.58 12.95 50.4 19.68-3.11 53.49-10.02 114.89-23.65 181.97-14.29 70.4-32.97 132.23-51.98 184.49"/>
 <path class="cls-19" d="m1290.2 2266.9c67.82 25.03 135.65 50.05 203.47 75.08"/>
 <path class="cls-19" d="m1857.18,1372.06c-4.01,13.47-16.08,22.68-29.34,22.75-11.17.06-21.63-6.4-27.14-16.61-8.01,2.27-21.51,7.21-35.01,18.31-14.67,12.06-22.33,25.63-25.97,33.33,9.43,7.77,20.83,18.62,31.87,33.13,10.21,13.42,17.28,26.25,22.17,36.78,6.55,2.83,17.41,6.52,31.21,6.73,18.58.29,32.63-5.86,39.49-9.45,4.92-16,11.7-34.29,21.16-53.84,3.13-6.47,6.04-11.95,6.68-13.14,7.46-14.01,14.59-25.28,20.05-33.4-5.37-5.43-15.24-13.96-29.97-19.47-9.9-3.7-18.78-4.83-25.19-5.12Z"/>
 <path class="cls-19" d="m1706.17,1410.02c19.34-11.32,40.03-22.58,62.08-33.53,10.37-5.15,20.6-10.01,30.66-14.6,3.73-13.24,15.17-22.95,28.84-24.46,13.63-1.5,26.89,5.43,33.43,17.5,21.24,7.51,42.47,15.01,63.71,22.51-1.92-5.08-9.18-22.37-28.2-33.13-14.77-8.35-28.87-8.38-34.82-8.05-.3-1.16-4.79-17.56-18.83-21.38-4.28-1.16-8.19-.82-11.05-.2-2.71,4.79-9.89,15.96-24.06,23.46-16.83,8.91-32.76,6.94-37.93,6.08-10.04.55-20.08,1.1-30.12,1.66"/>
 <path class="cls-19" d="m1800.8 1750.2c21.23 10.03 61.35 25.6 113.88 25.8 50.84 0.2 90-14.08 111.23-23.62"/>
 <path class="cls-19" d="m1798.1 1770.3c23.53 9.88 65.2 23.85 118.67 23.3 50.68-0.52 90.24-13.86 113.32-23.63"/>
 <path class="cls-19" d="m1998.2 1828.3c-23.14 2.57-49.53 4.12-78.58 3.46-34.33-0.77-64.96-4.46-91.06-9.13"/>
 <line class="cls-19" x1="1817.8" x2="1813.9" y1="1979.2" y2="2042.3"/>
 <path class="cls-19" d="m1753.7 2029.8c20.16 6.65 42.35 13 66.43 18.51 30.91 7.07 59.74 11.57 85.77 14.37 6.34-1.7 12.67-3.4 19.01-5.1 33.54-11.75 67.07-23.49 100.61-35.24-3.67-26.46-7.34-52.91-11.01-79.37"/>
 <path class="cls-19" d="m2093.9 2047.7c-27.54 19.5-85.24 54.85-167.19 66.11-84.63 11.63-151.58-8.4-183.33-20.19"/>
 <path class="cls-19" d="m875.23,1904.37c.15-15.98-.7-33.93-3.34-53.37-5.14-37.98-15.43-69.7-25.57-93.98"/>
 <path class="cls-19" d="m805.34 1752.9c-12.85 3.8-27.94 9.34-44.1 17.55-13.1 6.65-24.29 13.74-33.6 20.4-12.11 38.94-23.74 79.52-34.67 121.72-22.84 88.17-39.73 172.16-52.14 250.83 25.58-19.23 51.15-38.45 76.73-57.68-8.84 46.55-17.68 93.1-26.52 139.64l75.84 97.92"/>
 <path class="cls-19" d="m1083.8 1711.2c23.75 5.74 58.41 17.08 95.04 40.79 30.64 19.83 52.48 41.72 66.94 58.68"/>
 <path class="cls-19" d="m1265 1860.3c-0.35 6.46-0.71 12.91-1.06 19.37"/>
 <polyline class="cls-19" points="1260.5 1918.5 1239.1 2166.5 1133 2047.5 1116.9 2049.8 1135.7 2284.7 1050.8 2346.2"/>
 <path class="cls-19" d="m727.63 1790.8c3.22-0.92 41.36-11.14 73.08 15.18 30.29 25.14 28.84 62.11 28.62 66.03 5.37 51.94 14.51 110.61 29.72 174.12 13.66 57.05 29.9 108.28 46.54 153.2 64.6-118.05 129.2-236.09 193.81-354.14l79.43-93.27"/>
 <path class="cls-19" d="m1084.3 1680.5c-1.38 25.77-1.26 55.83 2.16 89.14 2.89 28.19 7.6 53.52 12.9 75.55"/>
 <path class="cls-19" d="m1404.53,891.86c35.07,138.85,95.83,293.76,153.34,462.93,44.4,156.54,83.84,247.55,167.1,346.3-12.55.21-31.85-.97-53.86-8.56-23.74-8.19-40.57-20.37-50.45-28.74,2.12,16.18,9.97,89.7-39.71,158.81-45.93,63.9-110.73,81.86-127.93,86.06,12.93-17.38,38.71-46.6,57.18-86.55,3.47-10.44,5.79-20.41,7.3-29.64-24.28,26.69-79.34,79.85-167.58,107.95-67.72,21.57-126.43,19.28-160.5,15.32,22.41-7.18,52.44-19.66,83.45-42.04,18.5-13.35,33.2-27.22,44.6-39.61-22.46,13.82-52.67,29.5-90.19,41.7-32.58,10.6-62.05,15.77-85.95,18.29,49.33-22.69,88.43-41.98,127.53-127.88,32.04-117.3.31-255.84-7.36-270.6"/>
 <path class="cls-19" d="m1314 1437.2c18.75 42.34 40.14 103.43 48.73 179.41 6.37 56.41 3.95 105.58-0.82 143.98"/>
 <path class="cls-19" d="m602.26,906.49c21.03,49.21,49.15,105.43,86.94,164.7,31.64,49.62,64.07,91.99,94.39,127.47-8.04-36.29-16.09-72.58-24.13-108.87,30.65,37.42,69.25,78.59,117.23,119.24,25.6,21.69,50.71,40.54,74.59,56.91.38-60.16-3.4-131.17-15.94-209.92-11.66-73.2-28.42-137.54-45.89-191.74,60.08,34.73,148.12,95.54,229.09,195.18,62.03,76.33,99.87,150.79,123,206.91"/>
 <path class="cls-19" d="m1224.4 902.08c25.14 61.3 53.67 152.13 59.08 264.7 3.26 67.91-2.68 127.34-11.07 175.19"/>
 <path class="cls-19" d="m557.43,918.93c-258.91,921.74-108.84,1024.51,15.04,1077-15.16,2.39-36.9,4.12-62.56.51-24.76-3.49-44.57-10.74-58.28-16.98l57.5,47.28c-29.4,6.23-77.65,12.49-135.2,1.55-77.73-14.77-130.79-52.98-155.79-73.72,25.03,33.89,50.07,67.77,75.1,101.66-11.08-.34-100.46-4.66-157.37-81.91-51.14-69.41-37.79-145.78-35.37-158.43-10.33,10.07-23.62,21.39-40.16,32.22-21.34,13.97-41.53,22.82-57.71,28.52,50.21-123.69,99.56-266.4,140.79-426.79,30.86-120.05,52.82-233.13,68.42-337.09"/>
</svg>
